<?xml version="1.0" encoding="UTF-8"?>
<svg id="Layer_1" data-name="Layer 1" xmlns="http://www.w3.org/2000/svg" viewBox="0 0 82.91 85.28">
  <defs>
    <style>
      .cls-1 {
        fill: #fff;
      }

      .cls-1, .cls-2 {
        stroke-width: 0px;
      }

      .cls-2 {
        fill: #5a90c7;
      }
    </style>
  </defs>
  <g>
    <g>
      <rect class="cls-2" x="69.05" y="69.63" width="4.73" height="11" rx=".75" ry=".75" transform="translate(98.32 175.23) rotate(-151.5)"/>
      <rect class="cls-1" x="70.96" y="70.12" width="4.73" height="2.98" rx=".75" ry=".75" transform="translate(103.59 169.53) rotate(-151.5)"/>
    </g>
    <g>
      <rect class="cls-2" x="74.56" y="71.94" width="5.88" height="13" rx=".75" ry=".75" transform="translate(108.17 184.34) rotate(-151.5)"/>
      <rect class="cls-1" x="76.7" y="72.48" width="5.88" height="4" rx=".75" ry=".75" transform="translate(114.1 177.94) rotate(-151.5)"/>
    </g>
    <g>
      <rect class="cls-2" x="63.77" y="66.76" width="4.73" height="11" rx=".75" ry=".75" transform="translate(89.77 167.33) rotate(-151.5)"/>
      <rect class="cls-1" x="65.68" y="67.25" width="4.73" height="2.98" rx=".75" ry=".75" transform="translate(95.04 161.62) rotate(-151.5)"/>
    </g>
    <g>
      <rect class="cls-2" x="58.48" y="63.89" width="4.73" height="11" rx=".75" ry=".75" transform="translate(81.2 159.41) rotate(-151.5)"/>
      <rect class="cls-1" x="60.39" y="64.38" width="4.73" height="2.98" rx=".75" ry=".75" transform="translate(86.47 153.7) rotate(-151.5)"/>
    </g>
    <g>
      <rect class="cls-2" x="53.37" y="60.97" width="4.73" height="11" rx=".75" ry=".75" transform="translate(72.99 151.48) rotate(-151.5)"/>
      <rect class="cls-1" x="55.28" y="61.46" width="4.73" height="2.98" rx=".75" ry=".75" transform="translate(78.27 145.77) rotate(-151.5)"/>
    </g>
    <g>
      <rect class="cls-2" x="48.07" y="58.24" width="4.73" height="11" rx=".75" ry=".75" transform="translate(64.35 143.83) rotate(-151.5)"/>
      <rect class="cls-1" x="49.99" y="58.73" width="4.73" height="2.98" rx=".75" ry=".75" transform="translate(69.62 138.12) rotate(-151.5)"/>
    </g>
  </g>
  <g>
    <path class="cls-2" d="M79.63,0C33.84,2.13,8.51,27.23,0,71.22c6.39,5.67,13.5,9.97,21.37,12.83,7.65.55,15.3.61,22.97,0,2.2-16.59,8.29-32.35,17.82-46.96-8.4,11.84-16.45,25.43-20.19,44.22-6.23.6-13.43.26-20.49-.22-6.82-2.56-12.94-6.12-18.05-11.11,3.53-21.22,11.93-38.45,26.09-50.59l.66,3.89C37.61,9.36,59.19,2.13,79.63,0Z"/>
    <path class="cls-2" d="M62.16,33.39c-9.61,9.8-19.19,26.34-23.76,43.74-8.1-3.47-19.04-10.86-21.36-13.4,4.96-25,26.54-45.6,48.09-55.93-15.63,11.27-28.54,25.22-33.8,38.46,4.31-1.99,14.37-4.73,14.76-4.02-.53,2.59-1.01,8.86-1.01,8.86,0,0,9.29-13.18,17.09-17.72Z"/>
    <path class="cls-1" d="M65.12,7.8c-24.73,10.7-43.67,30.95-50.25,56.87,5.78,4.25,14.52,8.34,23.53,12.46-8.23-4.6-15.76-9.09-20.53-13.1,8.46-29.62,27.13-45.58,47.25-56.24Z"/>
    <polygon class="cls-2" points="10.96 66.8 2.4 68.9 2.06 70.31 3.01 71.13 10.96 66.8"/>
    <path class="cls-2" d="M61.55,20.52c-5.26,3.84-9.94,10.73-13.57,17.43-2.3.5-5,.85-7.95,1.26,10.2-10.4,13.81-14.32,21.52-18.69Z"/>
    <path class="cls-1" d="M44.38,38.58s-2.07-.4-1.81-.93c.86-1.77,12.46-13.36,18.99-17.13-8.48,4.31-19.9,15.22-21.96,18.59,1.37.31,4.79-.54,4.79-.54Z"/>
    <path class="cls-1" d="M45.65,45.17s.31-2.45.59-3.53c-.5-.16-9.71,2.48-14.92,4.62,5.4-1.66,12.17-3.14,14-3.26.19.18.35,1.5.33,2.17Z"/>
  </g>
</svg>