<?xml version="1.0" encoding="UTF-8"?>
<svg id="Layer_1" data-name="Layer 1" xmlns="http://www.w3.org/2000/svg" viewBox="0 0 460.73 87.11">
  <defs>
    <style>
      .cls-1 {
        fill: #00324d;
      }

      .cls-1, .cls-2 {
        stroke-width: 0px;
      }

      .cls-2 {
        fill: #5a90c7;
      }
    </style>
  </defs>
  <g>
    <g>
      <g>
        <rect class="cls-1" x="65.6" y="69" width="4.73" height="11" rx=".75" ry=".75" transform="translate(65.98 175.33) rotate(-136.5)"/>
        <rect class="cls-2" x="68.36" y="70.1" width="4.73" height="2.98" rx=".75" ry=".75" transform="translate(72.75 172.21) rotate(-136.5)"/>
      </g>
      <g>
        <rect class="cls-1" x="70.05" y="72.77" width="5.88" height="13" rx=".75" ry=".75" transform="translate(71.37 187.01) rotate(-136.5)"/>
        <rect class="cls-2" x="73.15" y="74" width="5.88" height="4" rx=".75" ry=".75" transform="translate(78.96 183.51) rotate(-136.5)"/>
      </g>
      <g>
        <rect class="cls-1" x="61.24" y="64.87" width="4.73" height="11" rx=".75" ry=".75" transform="translate(61.31 165.19) rotate(-136.5)"/>
        <rect class="cls-2" x="64" y="65.97" width="4.73" height="2.98" rx=".75" ry=".75" transform="translate(68.07 162.08) rotate(-136.5)"/>
      </g>
      <g>
        <rect class="cls-1" x="56.88" y="60.72" width="4.73" height="11" rx=".75" ry=".75" transform="translate(56.63 155.04) rotate(-136.5)"/>
        <rect class="cls-2" x="59.64" y="61.82" width="4.73" height="2.98" rx=".75" ry=".75" transform="translate(63.39 151.92) rotate(-136.5)"/>
      </g>
      <g>
        <rect class="cls-1" x="52.7" y="56.58" width="4.73" height="11" rx=".75" ry=".75" transform="translate(52.27 145.01) rotate(-136.5)"/>
        <rect class="cls-2" x="55.46" y="57.68" width="4.73" height="2.98" rx=".75" ry=".75" transform="translate(59.03 141.89) rotate(-136.5)"/>
      </g>
      <g>
        <rect class="cls-1" x="48.29" y="52.57" width="4.73" height="11" rx=".75" ry=".75" transform="translate(47.42 135.07) rotate(-136.5)"/>
        <rect class="cls-2" x="51.05" y="53.67" width="4.73" height="2.98" rx=".75" ry=".75" transform="translate(54.18 131.95) rotate(-136.5)"/>
      </g>
    </g>
    <g>
      <path class="cls-1" d="M95.35,4.06C50.57-5.74,19.61,11.96,0,52.25c4.7,7.13,10.46,13.12,17.32,17.92,7.24,2.51,14.62,4.55,22.19,5.95,6.42-15.46,16.38-29.1,29.37-40.75-11.17,9.27-22.47,20.31-30.94,37.49-6.18-1.03-13.04-3.22-19.74-5.51-5.93-4.24-10.92-9.26-14.56-15.4C12.54,32.35,25.11,17.88,41.94,9.82l-.36,3.93C52.34,2.22,75.06.82,95.35,4.06Z"/>
      <path class="cls-1" d="M69.83,31.79c-11.82,6.98-25.35,20.48-34.28,36.1-6.92-5.44-15.58-15.42-17.17-18.47C29.66,26.56,55.83,12.24,79.32,7.84c-18.01,6.84-34.1,16.97-42.6,28.4,4.68-.81,15.11-.85,15.3-.06-1.18,2.37-3.27,8.3-3.27,8.3,0,0,12.39-10.32,21.09-12.69Z"/>
      <path class="cls-2" d="M79.32,7.84c-26.66,3.93-50.19,18.6-63.26,41.93,4.49,5.6,11.86,11.81,19.5,18.13-6.76-6.58-12.87-12.86-16.44-17.96C34.95,23.5,57.12,12.92,79.32,7.84Z"/>
      <polygon class="cls-1" points="11.73 50.81 2.92 50.62 2.23 51.89 2.93 52.93 11.73 50.81"/>
      <path class="cls-1" d="M72.58,19.2c-6.08,2.35-12.38,7.79-17.62,13.33-2.35-.11-5.05-.47-8.01-.84,12.54-7.4,17.04-10.26,25.62-12.49Z"/>
      <path class="cls-2" d="M51.32,32.2s-1.89-.92-1.51-1.36c1.29-1.48,15.49-9.68,22.77-11.63-9.31,1.96-23.16,9.55-26.03,12.28,1.24.65,4.76.72,4.76.72Z"/>
      <path class="cls-2" d="M50.83,38.9s.94-2.29,1.49-3.25c-.44-.28-10.02-.11-15.61.6,5.64-.21,12.56.12,14.36.48.13.22-.05,1.54-.24,2.18Z"/>
    </g>
  </g>
  <g>
    <g>
      <path class="cls-1" d="M100.44,19.02c-8.89.37-9.38.37-12.06.79.18-.73.24-1.16.24-1.83s-.06-1.16-.24-2.07c5.42.3,7.12.37,14.86.37,8.53,0,10.23-.06,16.32-.37-.3.85-.37,1.28-.37,1.95s.06,1.1.24,1.95c-2.01-.43-6.64-.73-12.54-.79-.24,3.78-.37,9.87-.37,16.14,0,10.47.18,18.57.55,21.86-1.46-.18-2.19-.24-3.11-.24-.97,0-1.58.06-2.86.24.37-2.92.61-12.85.61-23.57,0-4.2-.12-8.77-.3-14.43h-.97Z"/>
      <path class="cls-1" d="M130.77,39.43c0,6.52.24,14.25.55,17.6-1.52-.18-2.25-.24-3.04-.24-.85,0-1.58.06-2.92.24.49-5.12.61-9.38.61-21.07,0-10.6-.18-15.59-.61-20.04,1.16.18,1.83.24,2.92.24s1.83-.06,3.04-.24c-.24,2.74-.55,10.9-.55,15.96v1.58c.61.06.97.06.97.06l5.54.06,6.09.06,6.15-.06,5.48-.06c.12,0,.49,0,.97-.06.06-.67.06-1.4.06-1.58,0-5.05-.3-13.15-.61-15.96,1.28.18,2.01.24,3.11.24s1.77-.06,2.92-.24c-.43,4.32-.55,9.56-.55,20.04,0,11.57.12,15.96.55,21.07-1.34-.18-2.07-.24-2.92-.24s-1.52.06-3.11.24c.43-3.53.67-10.9.67-17.9,0-.97,0-1.77-.12-2.92l-.91-.06c-1.71,0-1.83,0-11.69-.06h-6.15c-4.51.06-4.75.06-6.46.12v3.23Z"/>
      <path class="cls-1" d="M214.99,36.81c0,12.85-8.77,21.01-22.59,21.01s-22.53-8.16-22.53-21.38,8.65-21.31,22.47-21.31,22.65,8.1,22.65,21.68ZM179.25,23.59c-2.25,3.17-3.35,7.49-3.35,12.85s1.1,9.68,3.35,12.91c2.8,4.14,7.61,6.52,13.15,6.52,10.29,0,16.56-7.31,16.56-19.12,0-5.66-1.04-9.8-3.35-13.15-2.8-4.14-7.67-6.52-13.21-6.52s-10.23,2.31-13.15,6.52Z"/>
      <path class="cls-1" d="M228.82,37.05c0,8.34.24,17.11.55,19.97-1.46-.18-2.19-.24-3.17-.24s-1.64.06-2.8.24c.37-5.48.61-13.88.61-22.11s-.18-14.19-.61-19c1.95.18,3.04.24,4.87.24,1.04,0,2.5-.06,4.2-.12,2.13-.06,4.02-.12,4.87-.12,3.9,0,6.39.55,8.46,1.83,2.38,1.52,3.84,4.32,3.84,7.43,0,4.08-2.25,7.49-6.27,9.5-1.58.85-3.23,1.34-6.09,1.89l.61.73,3.9,4.99c7.73,9.87,9.44,11.94,12.18,14.74-1.83-.18-2.74-.24-3.84-.24-1.16,0-1.95.06-3.41.24l-.61-.85c-7.12-9.74-13.09-17.42-14.98-19.12h-2.31ZM232.23,34.98c7.61,0,11.94-3.29,11.94-9.2,0-5.05-3.35-7.79-9.62-7.79-1.64,0-3.29.12-5.36.43-.24,5.24-.37,8.28-.37,16.32,1.28.18,2.25.24,3.41.24Z"/>
    </g>
    <g>
      <path class="cls-1" d="M282.23,22.98c-1.16-3.35-4.14-5.48-7.61-5.48-4.26,0-7.49,3.17-7.49,7.31,0,2.13.97,4.2,2.68,5.48,1.46,1.04,3.29,2.01,6.88,3.47,4.08,1.71,5.24,2.38,6.7,3.84,1.83,1.77,2.74,4.08,2.74,6.88,0,7.55-6.27,13.34-14.43,13.34-3.9,0-7.43-1.16-10.23-3.41.85-2.62,1.04-3.59,1.22-5.42h.61c1.64,3.65,5.54,6.15,9.5,6.15,4.93,0,8.59-3.59,8.59-8.59,0-2.13-.73-3.84-2.13-5.18-1.46-1.34-2.38-1.83-6.64-3.59-7.37-3.04-10.11-6.09-10.11-11.33,0-6.76,5.24-11.33,12.85-11.33,3.53,0,6.21.85,9.13,2.86-.73,1.58-1.34,3.53-1.64,4.99h-.61Z"/>
      <path class="cls-1" d="M327.91,50.57l-.12.55-.3,1.28-.3,1.28-.12.49c-3.53,2.44-8.16,3.65-13.64,3.65-12.85,0-21.19-8.28-21.19-21.01s8.83-21.68,22.9-21.68c4.99,0,9.44.85,12.85,2.5-.55,1.34-.97,2.98-1.22,4.63l-.43.18c-3.11-3.29-7.19-5.05-11.75-5.05-4.93,0-9.26,2.07-12.24,5.79-2.74,3.35-4.08,7.73-4.08,13.46s1.4,10.35,4.32,13.7c2.92,3.41,7.06,5.24,11.88,5.24s9.07-1.64,13.15-5.18l.3.18Z"/>
      <path class="cls-1" d="M377.11,36.81c0,12.85-8.77,21.01-22.59,21.01s-22.53-8.16-22.53-21.38,8.65-21.31,22.47-21.31,22.65,8.1,22.65,21.68ZM341.37,23.59c-2.25,3.17-3.35,7.49-3.35,12.85s1.1,9.68,3.35,12.91c2.8,4.14,7.61,6.52,13.15,6.52,10.29,0,16.56-7.31,16.56-19.12,0-5.66-1.04-9.8-3.35-13.15-2.8-4.14-7.67-6.52-13.21-6.52s-10.23,2.31-13.15,6.52Z"/>
      <path class="cls-1" d="M390.94,37.05c0,8.34.24,17.11.55,19.97-1.46-.18-2.19-.24-3.17-.24s-1.64.06-2.8.24c.37-5.48.61-13.88.61-22.11s-.18-14.19-.61-19c1.95.18,3.04.24,4.87.24,1.04,0,2.5-.06,4.2-.12,2.13-.06,4.02-.12,4.87-.12,3.9,0,6.39.55,8.46,1.83,2.38,1.52,3.84,4.32,3.84,7.43,0,4.08-2.25,7.49-6.27,9.5-1.58.85-3.23,1.34-6.09,1.89l.61.73,3.9,4.99c7.73,9.87,9.44,11.94,12.18,14.74-1.83-.18-2.74-.24-3.84-.24-1.16,0-1.95.06-3.41.24l-.61-.85c-7.12-9.74-13.09-17.42-14.98-19.12h-2.31ZM394.35,34.98c7.61,0,11.94-3.29,11.94-9.2,0-5.05-3.35-7.79-9.62-7.79-1.64,0-3.29.12-5.36.43-.24,5.24-.37,8.28-.37,16.32,1.28.18,2.25.24,3.41.24Z"/>
      <path class="cls-1" d="M443.5,56.96q-7.06-.18-8.4-.18c-3.53,0-10.9.12-12.54.24.43-4.14.67-13.7.67-23.81,0-7.79-.18-13.95-.43-17.29,1.95.18,2.01.18,10.9.24l4.93-.06c3.35,0,4.32-.06,5.48-.18-.12.85-.18,1.28-.18,1.77,0,.43.06.85.18,1.77-3.35-.37-9.26-.61-13.58-.61-.67,0-1.22,0-2.01.06-.06.43-.12,2.8-.3,7.12q-.18,5.85-.18,6.7c0,.12,0,.67.06,1.22.85.06,1.22.06,2.19.06,4.57,0,10.11-.24,12.42-.55-.18.91-.24,1.4-.24,1.95,0,.61.06.97.24,1.64-2.56-.24-7.19-.43-12.54-.43-.79,0-1.28,0-2.13.06v1.04l.06,3.04v4.51c0,1.22,0,2.74.06,4.45.06,1.89.12,3.11.12,3.41v.97c.85.06,1.4.06,2.13.06,4.99,0,11.33-.37,14.01-.79-.12.79-.18,1.22-.18,1.83,0,.67.06,1.04.18,1.83l-.91-.06Z"/>
    </g>
  </g>
  <g>
    <path class="cls-1" d="M105.31,69.89c1.82,0,2.85.1,3.8.4,1.47.45,2.3,1.62,2.3,3.2,0,1.28-.62,2.47-1.67,3.2-.67.45-1.22.7-2.35.95,3.15.47,4.67,1.8,4.67,4.12,0,1.55-.8,3.02-2.07,3.85-1.22.8-2.7,1.15-4.77,1.15-.38,0-.88-.03-1.45-.05-.67-.02-1.17-.05-1.42-.05-.5,0-.8.03-1.42.1.2-1.92.25-3.7.25-9.35,0-2.9-.08-6.32-.17-7.52.58.05.9.08,1.38.08.2,0,.67-.03,1.37-.05l1.58-.02ZM103.11,77.38c.35.03.55.03.8.03,3.6,0,5.32-1.12,5.32-3.47,0-2.12-1.35-3.15-4.2-3.15-.62,0-1.02.03-1.82.12-.08,2-.08,2.17-.08,4.77l-.03,1.35v.35ZM103.13,81.96c0,.77.05,3.05.1,3.75.78.12,1.25.15,1.8.15,1.45,0,2.5-.27,3.27-.88.9-.67,1.45-1.87,1.45-3.17,0-1.42-.65-2.57-1.72-3.05-.8-.38-1.77-.53-3.25-.53-.42,0-.77.03-1.62.05l-.03.35v3.32Z"/>
    <path class="cls-1" d="M118.73,78.56c0,3.42.1,7.02.22,8.2-.6-.08-.9-.1-1.3-.1s-.67.03-1.15.1c.15-2.25.25-5.7.25-9.07s-.08-5.82-.25-7.8c.8.08,1.25.1,2,.1.42,0,1.02-.02,1.72-.05.87-.03,1.65-.05,2-.05,1.6,0,2.62.22,3.47.75.97.62,1.57,1.77,1.57,3.05,0,1.67-.92,3.07-2.57,3.9-.65.35-1.33.55-2.5.77l.25.3,1.6,2.05c3.17,4.05,3.87,4.9,5,6.05-.75-.08-1.12-.1-1.57-.1-.48,0-.8.03-1.4.1l-.25-.35c-2.92-4-5.37-7.15-6.15-7.85h-.95ZM120.13,77.71c3.12,0,4.9-1.35,4.9-3.77,0-2.07-1.38-3.2-3.95-3.2-.67,0-1.35.05-2.2.17-.1,2.15-.15,3.4-.15,6.7.52.08.92.1,1.4.1Z"/>
    <path class="cls-1" d="M133.86,69.99c.45,0,.72-.02,1.22-.1-.15,1.75-.25,4.72-.25,7.62,0,4.25.08,7.35.25,9.25-.6-.08-.9-.1-1.25-.1-.38,0-.65.03-1.2.1.15-1.97.22-5.02.22-9.72,0-2.77-.1-5.6-.22-7.15.5.08.78.1,1.22.1Z"/>
    <path class="cls-1" d="M141.06,69.56c.45.47.72.8,2.27,2.5,1,1.08,1.82,1.97,2.37,2.55.83.85,1.65,1.72,2.45,2.57.83.83,1.78,1.85,2.55,2.75,1.35,1.45,1.95,2.05,2.67,2.75l.02-.62q.05-3.37.05-4.8c0-3.5-.05-5.9-.17-7.37.47.08.67.1.88.1.25,0,.45-.02.85-.1-.27,2.27-.45,7.15-.45,12.25,0,2.42,0,3.55.05,4.95h-.38c-1.67-2.05-5.85-6.67-10.07-11.07-.7-.72-1.37-1.42-2.05-2.15l-.3-.3-.03.45c-.05,5.12-.05,5.22-.05,5.87,0,2.38.1,5.27.22,6.87-.35-.08-.57-.1-.9-.1s-.5.03-.85.1c.17-1.22.32-4.45.4-8.67q.08-3.27.08-6.02c0-1.35,0-1.8-.03-2.5h.4Z"/>
    <path class="cls-1" d="M174.48,72.89c-1.37-1.52-3.37-2.4-5.62-2.4-4.3,0-7.1,3.1-7.1,7.85s2.77,7.82,7.25,7.82c1.47,0,2.8-.27,4.07-.85.08-1.12.1-2.07.1-3.25,0-1.35-.02-2-.15-3,.4.08.65.1,1.1.1.5,0,.77-.02,1.25-.1-.12,1.3-.2,2.77-.2,4.25s0,1.95.08,2.65c-2.33.77-4.42,1.12-6.67,1.12-2.87,0-4.97-.65-6.62-2.07-1.75-1.5-2.67-3.72-2.67-6.47,0-2.9,1.05-5.35,2.95-6.9,1.72-1.4,3.95-2.07,6.85-2.07,2.57,0,4.47.45,6.27,1.45-.3.52-.47,1.05-.62,1.87h-.25Z"/>
    <path class="cls-1" d="M190.35,71.16c-3.65.15-3.85.15-4.95.33.08-.3.1-.47.1-.75s-.02-.47-.1-.85c2.22.12,2.92.15,6.1.15,3.5,0,4.2-.02,6.7-.15-.12.35-.15.52-.15.8s.03.45.1.8c-.83-.17-2.72-.3-5.15-.33-.1,1.55-.15,4.05-.15,6.62,0,4.3.07,7.62.22,8.97-.6-.08-.9-.1-1.27-.1-.4,0-.65.03-1.17.1.15-1.2.25-5.27.25-9.67,0-1.72-.05-3.6-.12-5.92h-.4Z"/>
    <path class="cls-1" d="M203.73,79.53c0,2.67.1,5.85.22,7.22-.62-.08-.92-.1-1.25-.1-.35,0-.65.03-1.2.1.2-2.1.25-3.85.25-8.65,0-4.35-.08-6.4-.25-8.22.47.08.75.1,1.2.1s.75-.02,1.25-.1c-.1,1.12-.22,4.47-.22,6.55v.65c.25.02.4.02.4.02l2.27.03,2.5.03,2.52-.03,2.25-.03s.2,0,.4-.02c.02-.28.02-.58.02-.65,0-2.07-.12-5.4-.25-6.55.53.08.83.1,1.28.1s.72-.02,1.2-.1c-.17,1.77-.22,3.92-.22,8.22,0,4.75.05,6.55.22,8.65-.55-.08-.85-.1-1.2-.1s-.62.03-1.28.1c.18-1.45.28-4.47.28-7.35,0-.4,0-.72-.05-1.2l-.38-.03c-.7,0-.75,0-4.8-.03h-2.52c-1.85.03-1.95.03-2.65.05v1.32Z"/>
    <path class="cls-1" d="M230.05,86.73q-2.9-.08-3.45-.08c-1.45,0-4.47.05-5.15.1.17-1.7.27-5.62.27-9.77,0-3.2-.08-5.72-.17-7.1.8.08.83.08,4.47.1l2.02-.02c1.38,0,1.78-.03,2.25-.08-.05.35-.08.52-.08.72,0,.17.03.35.08.72-1.38-.15-3.8-.25-5.57-.25-.27,0-.5,0-.82.03-.03.17-.05,1.15-.12,2.92q-.08,2.4-.08,2.75s0,.27.03.5c.35.02.5.02.9.02,1.88,0,4.15-.1,5.1-.22-.08.38-.1.57-.1.8,0,.25.02.4.1.67-1.05-.1-2.95-.17-5.15-.17-.33,0-.53,0-.88.02v.42l.03,1.25v1.85c0,.5,0,1.12.02,1.82.03.78.05,1.28.05,1.4v.4c.35.03.58.03.88.03,2.05,0,4.65-.15,5.75-.33-.05.33-.08.5-.08.75,0,.27.03.42.08.75l-.38-.03Z"/>
    <path class="cls-1" d="M243.95,79.53c0,2.67.1,5.85.22,7.22-.62-.08-.92-.1-1.25-.1-.35,0-.65.03-1.2.1.2-2.1.25-3.85.25-8.65,0-4.35-.08-6.4-.25-8.22.47.08.75.1,1.2.1s.75-.02,1.25-.1c-.1,1.12-.22,4.47-.22,6.55v.65c.25.02.4.02.4.02l2.27.03,2.5.03,2.52-.03,2.25-.03s.2,0,.4-.02c.02-.28.02-.58.02-.65,0-2.07-.12-5.4-.25-6.55.53.08.83.1,1.28.1s.72-.02,1.2-.1c-.17,1.77-.22,3.92-.22,8.22,0,4.75.05,6.55.22,8.65-.55-.08-.85-.1-1.2-.1s-.62.03-1.28.1c.18-1.45.28-4.47.28-7.35,0-.4,0-.72-.05-1.2l-.38-.03c-.7,0-.75,0-4.8-.03h-2.52c-1.85.03-1.95.03-2.65.05v1.32Z"/>
    <path class="cls-1" d="M268.58,70.11l1.7,4,1.75,4.12,1.85,4.27c1.05,2.47,1.3,3.02,1.87,4.25-.52-.08-.8-.1-1.3-.1s-.75.03-1.2.1c-.45-1.3-1.82-4.82-2.6-6.6h-.45l-2.85-.03s-2.42.03-3,.05c-.6,1.45-1.08,2.6-1.28,3.17-.02.02-.52,1.52-1.17,3.4-.42-.08-.62-.1-.85-.1-.25,0-.42.03-.92.1.53-1.03.9-1.83,1.95-4.12.62-1.42,1.27-2.85,1.92-4.32.65-1.38,1.25-2.7,1.88-4.15.57-1.27,1.17-2.62,1.77-3.97l.25-.53h.5l.17.45ZM267.4,73.21l-1.25,2.77-1.2,2.8-.15.35c1.15.02,1.62.02,2.88.02,1.1,0,1.7,0,2.55-.02l-.12-.35c-.4-.92-.8-1.87-1.17-2.8-.45-1.05-.82-1.9-1.37-3.1l-.15.33Z"/>
    <path class="cls-1" d="M281.55,69.66c2.42,4.8,5.52,10.65,7.02,13.22.5-.85.77-1.35,1.8-3.22,1.5-2.75,3.35-6.12,5.55-10h.32l.05.43c.1.82.18,1.62.25,2.45l.35,3.1c.52,5.12,1.1,9.72,1.35,11.12-.67-.08-.92-.1-1.2-.1s-.52.03-1.17.1c-.02-2.1-.45-6.85-1.12-12.15l-.05-.5c-2.22,3.75-5.45,9.9-6.5,12.4h-.2c-2.82-5.75-2.87-5.85-6.12-11.77l-.22-.4c-.62,4.6-1.25,10.85-1.23,12.42-.55-.08-.7-.1-.9-.1-.22,0-.4.03-.85.1.47-2.45,1.02-6.07,1.7-11.22.33-2.55.55-4.07.62-4.6.05-.38.1-.83.15-1.28h.4Z"/>
    <path class="cls-1" d="M305.05,69.66c2.42,4.8,5.52,10.65,7.02,13.22.5-.85.77-1.35,1.8-3.22,1.5-2.75,3.35-6.12,5.55-10h.32l.05.43c.1.82.18,1.62.25,2.45l.35,3.1c.52,5.12,1.1,9.72,1.35,11.12-.67-.08-.92-.1-1.2-.1s-.52.03-1.17.1c-.02-2.1-.45-6.85-1.12-12.15l-.05-.5c-2.22,3.75-5.45,9.9-6.5,12.4h-.2c-2.82-5.75-2.87-5.85-6.12-11.77l-.22-.4c-.62,4.6-1.25,10.85-1.23,12.42-.55-.08-.7-.1-.9-.1-.22,0-.4.03-.85.1.47-2.45,1.02-6.07,1.7-11.22.33-2.55.55-4.07.62-4.6.05-.38.1-.83.15-1.28h.4Z"/>
    <path class="cls-1" d="M334.88,86.73q-2.9-.08-3.45-.08c-1.45,0-4.47.05-5.15.1.17-1.7.28-5.62.28-9.77,0-3.2-.08-5.72-.18-7.1.8.08.83.08,4.47.1l2.02-.02c1.38,0,1.77-.03,2.25-.08-.05.35-.07.52-.07.72,0,.17.02.35.07.72-1.37-.15-3.8-.25-5.57-.25-.28,0-.5,0-.83.03-.02.17-.05,1.15-.12,2.92q-.07,2.4-.07,2.75s0,.27.02.5c.35.02.5.02.9.02,1.87,0,4.15-.1,5.1-.22-.08.38-.1.57-.1.8,0,.25.03.4.1.67-1.05-.1-2.95-.17-5.15-.17-.32,0-.52,0-.87.02v.42l.02,1.25v1.85c0,.5,0,1.12.03,1.82.02.78.05,1.28.05,1.4v.4c.35.03.58.03.88.03,2.05,0,4.65-.15,5.75-.33-.05.33-.08.5-.08.75,0,.27.03.42.08.75l-.38-.03Z"/>
    <path class="cls-1" d="M341.6,78.56c0,3.42.1,7.02.23,8.2-.6-.08-.9-.1-1.3-.1s-.67.03-1.15.1c.15-2.25.25-5.7.25-9.07s-.08-5.82-.25-7.8c.8.08,1.25.1,2,.1.42,0,1.02-.02,1.72-.05.88-.03,1.65-.05,2-.05,1.6,0,2.62.22,3.47.75.97.62,1.58,1.77,1.58,3.05,0,1.67-.92,3.07-2.58,3.9-.65.35-1.32.55-2.5.77l.25.3,1.6,2.05c3.17,4.05,3.87,4.9,5,6.05-.75-.08-1.12-.1-1.58-.1-.47,0-.8.03-1.4.1l-.25-.35c-2.92-4-5.37-7.15-6.15-7.85h-.95ZM343,77.71c3.12,0,4.9-1.35,4.9-3.77,0-2.07-1.38-3.2-3.95-3.2-.67,0-1.35.05-2.2.17-.1,2.15-.15,3.4-.15,6.7.53.08.92.1,1.4.1Z"/>
    <path class="cls-1" d="M364.58,69.99c.45,0,1.35-.02,2.6-.05.95-.03,2-.05,2.72-.05,2.9,0,4.55.52,6.02,1.9,1.53,1.42,2.33,3.45,2.33,5.9,0,3-1.17,5.6-3.22,7.22-1.7,1.32-3.57,1.85-6.7,1.85-.42,0-1.35-.03-2.2-.05-.78-.02-1.33-.05-1.67-.05-.62,0-1.05.03-1.77.1.12-1.05.25-5.3.25-8.57,0-3.57-.08-6.4-.25-8.3.7.08,1.1.1,1.9.1ZM367.43,85.83c3.27,0,4.97-.5,6.32-1.9,1.35-1.38,2.02-3.4,2.02-5.97s-.62-4.32-1.88-5.55c-1.2-1.2-2.62-1.58-5.8-1.58-1.3,0-2,.05-3.07.18-.05.95-.12,4.87-.12,6.9,0,3.15.05,6.55.15,7.72.88.15,1.45.2,2.37.2Z"/>
    <path class="cls-1" d="M400.4,78.46c0,5.27-3.6,8.62-9.27,8.62s-9.25-3.35-9.25-8.77,3.55-8.75,9.22-8.75,9.3,3.32,9.3,8.9ZM385.73,73.04c-.92,1.3-1.38,3.07-1.38,5.27s.45,3.97,1.38,5.3c1.15,1.7,3.12,2.67,5.4,2.67,4.22,0,6.8-3,6.8-7.85,0-2.32-.42-4.02-1.37-5.4-1.15-1.7-3.15-2.67-5.42-2.67s-4.2.95-5.4,2.67Z"/>
    <path class="cls-1" d="M409.4,83.68l1.08-3.1c2.3-6.62,3.15-9.3,3.5-10.7.4.08.55.1.72.1s.3-.02.75-.1c.5,1.9,1.42,4.77,3.3,10.32.4,1.15.77,2.27,1.15,3.42l.15.38c1.97-5.77,3.67-11.25,4.4-14.12.38.08.55.1.8.1.17,0,.27,0,.97-.1-1.32,3.22-1.77,4.47-3.12,8.5l-.92,2.65c-1.15,3.37-1.8,5.27-1.92,5.72-.42-.08-.58-.1-.75-.1s-.22,0-.8.1c-.7-2.5-1.9-6.22-4.32-13.37l-.12-.38c-.33.88-.48,1.3-1.08,3.05-.47,1.38-1,2.92-1.17,3.38-.45,1.27-.9,2.52-1.32,3.8-.53,1.42-.8,2.25-1.22,3.52-.45-.08-.62-.1-.8-.1-.2,0-.35.03-.75.1l-.85-2.88c-.33-1.15-.45-1.57-.85-2.87-.27-.92-.57-1.82-.87-2.75-1.2-3.77-1.28-4-1.75-5.47l-.82-2.47-.12-.42c.85.1.97.1,1.22.1.3,0,.55-.02,1.2-.1.9,3.6,2.8,10.02,4.2,14.22l.15-.42Z"/>
    <path class="cls-1" d="M430.25,69.56c.45.47.72.8,2.27,2.5,1,1.08,1.82,1.97,2.37,2.55.83.85,1.65,1.72,2.45,2.57.83.83,1.78,1.85,2.55,2.75,1.35,1.45,1.95,2.05,2.67,2.75l.02-.62q.05-3.37.05-4.8c0-3.5-.05-5.9-.17-7.37.47.08.67.1.88.1.25,0,.45-.02.85-.1-.27,2.27-.45,7.15-.45,12.25,0,2.42,0,3.55.05,4.95h-.38c-1.67-2.05-5.85-6.67-10.07-11.07-.7-.72-1.37-1.42-2.05-2.15l-.3-.3-.03.45c-.05,5.12-.05,5.22-.05,5.87,0,2.38.1,5.27.22,6.87-.35-.08-.57-.1-.9-.1s-.5.03-.85.1c.17-1.22.32-4.45.4-8.67q.08-3.27.08-6.02c0-1.35,0-1.8-.03-2.5h.4Z"/>
  </g>
  <path class="cls-1" d="M451.65,10.34c.58,0,1.15.15,1.7.45s.99.72,1.29,1.28c.31.56.46,1.13.46,1.74s-.15,1.17-.46,1.72c-.3.55-.73.98-1.28,1.28-.55.3-1.12.46-1.72.46s-1.17-.15-1.72-.46c-.55-.3-.98-.73-1.28-1.28-.31-.55-.46-1.12-.46-1.72s.16-1.18.47-1.74c.31-.56.74-.98,1.3-1.28.55-.3,1.12-.45,1.7-.45ZM451.65,10.91c-.49,0-.96.12-1.42.37-.46.25-.82.6-1.08,1.07s-.39.95-.39,1.45.13.98.38,1.43c.25.46.61.81,1.07,1.07.46.25.94.38,1.44.38s.98-.13,1.44-.38c.46-.26.81-.61,1.07-1.07.25-.46.38-.94.38-1.43s-.13-.98-.39-1.45-.62-.82-1.08-1.07c-.46-.25-.93-.37-1.42-.37ZM450.13,15.72v-3.72h1.28c.44,0,.75.03.95.1.2.07.35.19.47.36.12.17.17.35.17.55,0,.27-.1.51-.29.71-.19.2-.45.32-.77.34.13.06.24.12.32.2.15.15.33.39.55.74l.45.73h-.73l-.33-.59c-.26-.46-.47-.75-.63-.87-.11-.09-.27-.13-.48-.13h-.35v1.58h-.6ZM450.73,13.62h.73c.35,0,.59-.05.71-.16s.19-.24.19-.41c0-.11-.03-.21-.09-.3-.06-.09-.15-.15-.25-.19-.11-.04-.31-.06-.6-.06h-.68v1.12Z"/>
  <path class="cls-1" d="M451.65,64.16c.58,0,1.15.15,1.7.45s.99.72,1.29,1.28c.31.56.46,1.13.46,1.74s-.15,1.17-.46,1.72c-.3.55-.73.98-1.28,1.28-.55.3-1.12.46-1.72.46s-1.17-.15-1.72-.46c-.55-.3-.98-.73-1.28-1.28-.31-.55-.46-1.12-.46-1.72s.16-1.18.47-1.74c.31-.56.74-.98,1.3-1.28.55-.3,1.12-.45,1.7-.45ZM451.65,64.74c-.49,0-.96.12-1.42.37-.46.25-.82.6-1.08,1.07s-.39.95-.39,1.45.13.98.38,1.43c.25.46.61.81,1.07,1.07.46.25.94.38,1.44.38s.98-.13,1.44-.38c.46-.26.81-.61,1.07-1.07.25-.46.38-.94.38-1.43s-.13-.98-.39-1.45-.62-.82-1.08-1.07c-.46-.25-.93-.37-1.42-.37ZM450.13,69.54v-3.72h1.28c.44,0,.75.03.95.1.2.07.35.19.47.36.12.17.17.35.17.55,0,.27-.1.51-.29.71-.19.2-.45.32-.77.34.13.06.24.12.32.2.15.15.33.39.55.74l.45.73h-.73l-.33-.59c-.26-.46-.47-.75-.63-.87-.11-.09-.27-.13-.48-.13h-.35v1.58h-.6ZM450.73,67.44h.73c.35,0,.59-.05.71-.16s.19-.24.19-.41c0-.11-.03-.21-.09-.3-.06-.09-.15-.15-.25-.19-.11-.04-.31-.06-.6-.06h-.68v1.12Z"/>
</svg>