<?xml version="1.0" encoding="UTF-8"?>
<svg id="Layer_1" data-name="Layer 1" xmlns="http://www.w3.org/2000/svg" viewBox="0 0 95 83">
  <defs>
    <style>
      .cls-1 {
        fill: #54aaff;
      }

      .cls-1, .cls-2 {
        stroke-width: 0px;
      }

      .cls-2 {
        fill: #fff;
      }
    </style>
  </defs>
  <g>
    <g>
      <path class="cls-1" d="M68.85,72.52l-2.1-1.98c-.37-.34-.38-.92-.04-1.29l-3.42,3.63c-.34.37-.33.94.04,1.29l2.1,1.98c.37.34.94.33,1.29-.04l3.42-3.62c-.35.37-.92.38-1.29.04Z"/>
      <rect class="cls-2" x="66.71" y="66.64" width="6.97" height="4.71" rx=".91" ry=".91" transform="translate(-28.16 72.75) rotate(-46.7)"/>
      <path class="cls-1" d="M74.29,77.64l-2.93-2.77c-.37-.34-.38-.92-.04-1.29l-4.1,4.35c-.35.37-.33.94.04,1.29l2.93,2.77c.37.34.94.33,1.29-.04l4.1-4.35c-.34.37-.92.38-1.29.04Z"/>
      <rect class="cls-2" x="71.57" y="70.43" width="7.97" height="5.85" rx=".91" ry=".91" transform="translate(-29.65 78.03) rotate(-46.7)"/>
      <path class="cls-1" d="M64.5,68.41l-2.1-1.98c-.37-.34-.38-.92-.04-1.29l-3.42,3.62c-.35.37-.33.94.04,1.29l2.1,1.98c.37.34.94.33,1.29-.04l3.42-3.63c-.35.37-.92.38-1.29.04Z"/>
      <line class="cls-2" x1="62.36" y1="65.15" x2="62.36" y2="65.15"/>
      <rect class="cls-2" x="62.35" y="62.53" width="6.97" height="4.71" rx=".91" ry=".91" transform="translate(-26.54 68.3) rotate(-46.7)"/>
      <path class="cls-1" d="M61.42,64.26c-.35.37-.92.38-1.29.04l-2.1-1.98c-.37-.34-.38-.92-.04-1.29l-3.42,3.63c-.35.37-.33.94.04,1.29l2.1,1.98c.37.34.94.33,1.29-.04l3.42-3.63Z"/>
      <rect class="cls-2" x="57.99" y="58.42" width="6.97" height="4.71" rx=".91" ry=".91" transform="translate(-24.91 63.83) rotate(-46.7)"/>
      <path class="cls-1" d="M57.24,60.15c-.35.37-.92.38-1.29.04l-2.1-1.98c-.37-.35-.38-.92-.04-1.29l-3.42,3.63c-.35.37-.33.94.04,1.29l2.1,1.98c.37.35.94.33,1.29-.04l3.42-3.63Z"/>
      <rect class="cls-2" x="53.81" y="54.3" width="6.97" height="4.71" rx=".91" ry=".91" transform="translate(-23.23 59.5) rotate(-46.7)"/>
    </g>
    <path class="cls-2" d="M54.23,49.16s0,0,0,0c-1.44,1.85-2.8,3.76-4.07,5.75l1.39,1.31c.37.34.94.33,1.29-.04l3.53-3.75c.35-.37.33-.94-.04-1.29l-2.1-1.98Z"/>
    <path class="cls-1" d="M51.55,56.21l-1.39-1.31c-.91,1.43-1.78,2.89-2.6,4.39l.57.54c.37.34.94.33,1.29-.04l3.42-3.63c-.35.37-.92.38-1.29.04Z"/>
  </g>
  <g>
    <path class="cls-1" d="M85.16,6.95c-22.22,6.44-38.01,14.76-48.2,28.15l15.61-.03-5.24,8.09c6.76-5.09,14.59-8.9,22.61-12.22-14.02,8.71-24.47,20.8-33.18,36.02l-19.29-18.32C32.5,21.56,59.36,9.06,85.16,6.95Z"/>
    <path class="cls-2" d="M85.16,6.95c-26.92.57-53.8,15.4-68.22,41.93,4.65,5.69,11.8,11.81,19.82,18.08-6.99-7.38-13.79-14.62-16.13-18.71C32.81,25.55,57.29,9.67,85.16,6.95Z"/>
    <path class="cls-1" d="M75.77,19.58c-11.87,1.55-20.21,7.01-28.11,11.56l8.7-.3c5.51-5.12,11.44-8.33,19.41-11.26Z"/>
    <path class="cls-2" d="M18.47,66.15c-5.41-3.87-10.99-9.13-14.51-14.45l8.05-2.04-7.35-.16C13.83,30.19,26.5,17.17,42.09,9.61l-.28,3.02c3.02-3.85,8.98-6.61,17.14-8.89,10.82-2.45,22.68-2.92,35.43-1.61C49.8-4.8,16.02,14.89.62,51.56c5.18,7.26,10.74,13.35,16.97,17.41l23.39,6.27c5.64-19.13,17-33.43,32.74-44.05-14.01,8.29-26.48,19.96-34.79,40.67l-20.47-5.72Z"/>
    <path class="cls-2" d="M75.77,19.58c-9.16.99-18.67,5.12-28.45,11.75l9.04-.49-2.28-1.06c6.91-5.5,13.65-8.59,21.69-10.2Z"/>
    <polygon class="cls-2" points="36.96 35.09 52.8 34.98 49.46 39.98 50.18 37.06 36.96 35.09"/>
  </g>
</svg>