<?xml version="1.0" encoding="UTF-8"?>
<svg xmlns="http://www.w3.org/2000/svg" viewBox="0 0 460.73 87.11">
  <defs>
    <style>
      .cls-1 {
        letter-spacing: .01em;
      }

      .cls-2 {
        letter-spacing: -.03em;
      }

      .cls-3 {
        letter-spacing: .02em;
      }

      .cls-4 {
        letter-spacing: .03em;
      }

      .cls-5 {
        letter-spacing: .04em;
      }

      .cls-6 {
        font-size: 6.71px;
      }

      .cls-6, .cls-7, .cls-8, .cls-9, .cls-10 {
        fill: #fff;
      }

      .cls-6, .cls-9 {
        font-family: ArialMT, Arial;
      }

      .cls-7 {
        font-size: 60.9px;
      }

      .cls-7, .cls-10 {
        font-family: ClassicoURW-Reg, 'Classico URW';
      }

      .cls-11 {
        letter-spacing: .04em;
      }

      .cls-12 {
        letter-spacing: .04em;
      }

      .cls-8, .cls-13 {
        stroke-width: 0px;
      }

      .cls-9 {
        font-size: 14.31px;
      }

      .cls-14 {
        letter-spacing: 0em;
      }

      .cls-10 {
        font-size: 25px;
      }

      .cls-13 {
        fill: #5a90c7;
      }

      .cls-15 {
        letter-spacing: .05em;
      }

      .cls-16 {
        letter-spacing: .04em;
      }

      .cls-17 {
        letter-spacing: 0em;
      }
    </style>
  </defs>
  <g id="Layer_3" data-name="Layer 3">
    <rect class="cls-8" x="-9017.44" y="-5103.55" width="11336.47" height="9981.15"/>
  </g>
  <g id="Layer_1" data-name="Layer 1">
    <g>
      <g>
        <g>
          <g>
            <rect class="cls-13" x="65.6" y="69" width="4.73" height="11" rx=".75" ry=".75" transform="translate(65.98 175.33) rotate(-136.5)"/>
            <rect class="cls-8" x="68.36" y="70.1" width="4.73" height="2.98" rx=".75" ry=".75" transform="translate(72.75 172.21) rotate(-136.5)"/>
          </g>
          <g>
            <rect class="cls-13" x="70.05" y="72.77" width="5.88" height="13" rx=".75" ry=".75" transform="translate(71.37 187.01) rotate(-136.5)"/>
            <rect class="cls-8" x="73.15" y="74" width="5.88" height="4" rx=".75" ry=".75" transform="translate(78.96 183.51) rotate(-136.5)"/>
          </g>
          <g>
            <rect class="cls-13" x="61.24" y="64.87" width="4.73" height="11" rx=".75" ry=".75" transform="translate(61.31 165.19) rotate(-136.5)"/>
            <rect class="cls-8" x="64" y="65.97" width="4.73" height="2.98" rx=".75" ry=".75" transform="translate(68.07 162.08) rotate(-136.5)"/>
          </g>
          <g>
            <rect class="cls-13" x="56.88" y="60.72" width="4.73" height="11" rx=".75" ry=".75" transform="translate(56.63 155.04) rotate(-136.5)"/>
            <rect class="cls-8" x="59.64" y="61.82" width="4.73" height="2.98" rx=".75" ry=".75" transform="translate(63.39 151.92) rotate(-136.5)"/>
          </g>
          <g>
            <rect class="cls-13" x="52.7" y="56.58" width="4.73" height="11" rx=".75" ry=".75" transform="translate(52.27 145.01) rotate(-136.5)"/>
            <rect class="cls-8" x="55.46" y="57.68" width="4.73" height="2.98" rx=".75" ry=".75" transform="translate(59.03 141.89) rotate(-136.5)"/>
          </g>
          <g>
            <rect class="cls-13" x="48.29" y="52.57" width="4.73" height="11" rx=".75" ry=".75" transform="translate(47.42 135.07) rotate(-136.5)"/>
            <rect class="cls-8" x="51.05" y="53.67" width="4.73" height="2.98" rx=".75" ry=".75" transform="translate(54.18 131.95) rotate(-136.5)"/>
          </g>
        </g>
        <g>
          <path class="cls-13" d="M95.35,4.06C50.57-5.74,19.61,11.96,0,52.25c4.7,7.13,10.46,13.12,17.32,17.92,7.24,2.51,14.62,4.55,22.19,5.95,6.42-15.46,16.38-29.1,29.37-40.75-11.17,9.27-22.47,20.31-30.94,37.49-6.18-1.03-13.04-3.22-19.74-5.51-5.93-4.24-10.92-9.26-14.56-15.4C12.54,32.35,25.11,17.88,41.94,9.82l-.36,3.93C52.34,2.22,75.06.82,95.35,4.06Z"/>
          <path class="cls-13" d="M69.83,31.79c-11.82,6.98-25.35,20.48-34.28,36.1-6.92-5.44-15.58-15.42-17.17-18.47C29.66,26.56,55.83,12.24,79.32,7.84c-18.01,6.84-34.1,16.97-42.6,28.4,4.68-.81,15.11-.85,15.3-.06-1.18,2.37-3.27,8.3-3.27,8.3,0,0,12.39-10.32,21.09-12.69Z"/>
          <path class="cls-8" d="M79.32,7.84c-26.66,3.93-50.19,18.6-63.26,41.93,4.49,5.6,11.86,11.81,19.5,18.13-6.76-6.58-12.87-12.86-16.44-17.96C34.95,23.5,57.12,12.92,79.32,7.84Z"/>
          <polygon class="cls-13" points="11.73 50.81 2.92 50.62 2.23 51.89 2.93 52.93 11.73 50.81"/>
          <path class="cls-13" d="M72.58,19.2c-6.08,2.35-12.38,7.79-17.62,13.33-2.35-.11-5.05-.47-8.01-.84,12.54-7.4,17.04-10.26,25.62-12.49Z"/>
          <path class="cls-8" d="M51.32,32.2s-1.89-.92-1.51-1.36c1.29-1.48,15.49-9.68,22.77-11.63-9.31,1.96-23.16,9.55-26.03,12.28,1.24.65,4.76.72,4.76.72Z"/>
          <path class="cls-8" d="M50.83,38.9s.94-2.29,1.49-3.25c-.44-.28-10.02-.11-15.61.6,5.64-.21,12.56.12,14.36.48.13.22-.05,1.54-.24,2.18Z"/>
        </g>
      </g>
      <g>
        <text class="cls-7" transform="translate(88.38 56.78)"><tspan class="cls-1" x="0" y="0">T</tspan><tspan x="31.85" y="0">HOR</tspan></text>
        <text class="cls-7" transform="translate(258.36 56.78)"><tspan class="cls-14" x="0" y="0">S</tspan><tspan class="cls-2" x="30.57" y="0">C</tspan><tspan class="cls-17" x="70.34" y="0">ORE</tspan></text>
      </g>
      <text class="cls-10" transform="translate(98.81 86.66)"><tspan class="cls-16" x="0" y="0">BRI</tspan><tspan class="cls-4" x="39.3" y="0">N</tspan><tspan class="cls-16" x="59.12" y="0">G </tspan><tspan class="cls-15" x="86.6" y="0">T</tspan><tspan class="cls-12" x="100.6" y="0">HE </tspan><tspan class="cls-11" x="140.82" y="0">H</tspan><tspan class="cls-12" x="160.8" y="0">AMMER D</tspan><tspan class="cls-3" x="281.72" y="0">O</tspan><tspan class="cls-5" x="303.47" y="0">W</tspan><tspan class="cls-12" x="328.5" y="0">N</tspan></text>
      <text class="cls-9" transform="translate(450.17 22.01)"><tspan x="0" y="0">®️</tspan></text>
      <text class="cls-6" transform="translate(448.18 72.03)"><tspan x="0" y="0">®️</tspan></text>
    </g>
  </g>
</svg>